<?xml version="1.0" encoding="UTF-8"?>
<svg width="375px" height="375px" viewBox="0 0 375 375" version="1.1" xmlns="http://www.w3.org/2000/svg" xmlns:xlink="http://www.w3.org/1999/xlink">
    <!-- Generator: Sketch 43.1 (39012) - http://www.bohemiancoding.com/sketch -->
    <title>Artboard</title>
    <desc>Created with Sketch.</desc>
    <defs>
        <path d="M104,0 L15.2704774,0 C0.001953125,0 0.001953125,27.5 0.001953125,27.5 C0.001953125,27.5 0.001953125,55 15.2704774,55 L104,55 C99.5,55 99.5,27.5 99.5,27.5 C99.5,27.5 99.5,0 104,0 Z" id="path-1"></path>
        <path d="M104,0 L15.2704774,0 C0.001953125,0 0.001953125,27.5 0.001953125,27.5 C0.001953125,27.5 0.001953125,55 15.2704774,55 L104,55 C99.5,55 99.5,27.5 99.5,27.5 C99.5,27.5 99.5,0 104,0 Z" id="path-3"></path>
        <path d="M104,0 L15.2704774,0 C0.001953125,0 0.001953125,27.5 0.001953125,27.5 C0.001953125,27.5 0.001953125,55 15.2704774,55 L104,55 C99.5,55 99.5,27.5 99.5,27.5 C99.5,27.5 99.5,0 104,0 Z" id="path-5"></path>
        <path d="M104,0 L15.2704774,0 C0.001953125,0 0.001953125,27.5 0.001953125,27.5 C0.001953125,27.5 0.001953125,55 15.2704774,55 L104,55 C99.5,55 99.5,27.5 99.5,27.5 C99.5,27.5 99.5,0 104,0 Z" id="path-7"></path>
    </defs>
    <g id="Page-1" stroke="none" stroke-width="1" fill="none" fill-rule="evenodd">
        <g id="Artboard">
            <g id="Group" transform="translate(14.000000, 13.000000)">
                <circle id="Oval" stroke="#979797" stroke-width="10" fill="#4A4A4A" cx="175" cy="175" r="175"></circle>
                <path d="M178.101559,86 L75.3469615,86 C50.6314461,86 50.6314461,130.514889 50.6314461,130.514889 C50.6314461,130.514889 50.6314461,175.029779 75.3469615,175.029779 L179,175.029779" id="Path" stroke="#F8E81C" stroke-width="10" stroke-linecap="round" stroke-linejoin="round" transform="translate(114.815723, 130.514889) scale(-1, 1) translate(-114.815723, -130.514889) "></path>
                <g id="Line-+-Line-+-Line-+-Line-+-Line-+-Line-+-Line-+-Line-Mask" transform="translate(57.000000, 103.000000)">
                    <mask id="mask-2" fill="white">
                        <use xlink:href="#path-1"></use>
                    </mask>
                    <use id="Mask" fill="#979797" transform="translate(52.000977, 27.500000) scale(-1, 1) translate(-52.000977, -27.500000) " xlink:href="#path-1"></use>
                    <path d="M-0.5,22.5 L107.5,22.5" id="Line" stroke="#FFFFFF" stroke-width="3" stroke-linecap="square" mask="url(#mask-2)"></path>
                    <path d="M-0.5,14.5 L107.5,14.5" id="Line" stroke="#FFFFFF" stroke-width="3" stroke-linecap="square" mask="url(#mask-2)"></path>
                    <path d="M-0.5,-1.5 L107.5,-1.5" id="Line" stroke="#FFFFFF" stroke-width="3" stroke-linecap="square" mask="url(#mask-2)"></path>
                    <path d="M-0.5,31.5 L107.5,31.5" id="Line" stroke="#FFFFFF" stroke-width="3" stroke-linecap="square" mask="url(#mask-2)"></path>
                    <path d="M-0.5,47.5 L107.5,47.5" id="Line" stroke="#FFFFFF" stroke-width="3" stroke-linecap="square" mask="url(#mask-2)"></path>
                    <path d="M-4.5,55.5 L103.5,55.5" id="Line" stroke="#FFFFFF" stroke-width="3" stroke-linecap="square" mask="url(#mask-2)"></path>
                    <path d="M-0.5,39.5 L107.5,39.5" id="Line" stroke="#FFFFFF" stroke-width="3" stroke-linecap="square" mask="url(#mask-2)"></path>
                    <path d="M2.5,6.5 L110.5,6.5" id="Line" stroke="#FFFFFF" stroke-width="3" stroke-linecap="square" mask="url(#mask-2)"></path>
                </g>
                <path d="M178.101559,175 L75.3469615,175 C50.6314461,175 50.6314461,219.514889 50.6314461,219.514889 C50.6314461,219.514889 50.6314461,264.029779 75.3469615,264.029779 L179,264.029779" id="Path" stroke="#F8E81C" stroke-width="10" stroke-linecap="round" stroke-linejoin="round" transform="translate(114.815723, 219.514889) scale(-1, 1) translate(-114.815723, -219.514889) "></path>
                <g id="Line-+-Line-+-Line-+-Line-+-Line-+-Line-+-Line-+-Line-Mask" transform="translate(57.000000, 192.000000)">
                    <mask id="mask-4" fill="white">
                        <use xlink:href="#path-3"></use>
                    </mask>
                    <use id="Mask" fill="#979797" transform="translate(52.000977, 27.500000) scale(-1, 1) translate(-52.000977, -27.500000) " xlink:href="#path-3"></use>
                    <path d="M-0.5,22.5 L107.5,22.5" id="Line" stroke="#FFFFFF" stroke-width="3" stroke-linecap="square" mask="url(#mask-4)"></path>
                    <path d="M-0.5,14.5 L107.5,14.5" id="Line" stroke="#FFFFFF" stroke-width="3" stroke-linecap="square" mask="url(#mask-4)"></path>
                    <path d="M-0.5,-1.5 L107.5,-1.5" id="Line" stroke="#FFFFFF" stroke-width="3" stroke-linecap="square" mask="url(#mask-4)"></path>
                    <path d="M-0.5,31.5 L107.5,31.5" id="Line" stroke="#FFFFFF" stroke-width="3" stroke-linecap="square" mask="url(#mask-4)"></path>
                    <path d="M-0.5,47.5 L107.5,47.5" id="Line" stroke="#FFFFFF" stroke-width="3" stroke-linecap="square" mask="url(#mask-4)"></path>
                    <path d="M-4.5,55.5 L103.5,55.5" id="Line" stroke="#FFFFFF" stroke-width="3" stroke-linecap="square" mask="url(#mask-4)"></path>
                    <path d="M-0.5,39.5 L107.5,39.5" id="Line" stroke="#FFFFFF" stroke-width="3" stroke-linecap="square" mask="url(#mask-4)"></path>
                    <path d="M2.5,6.5 L110.5,6.5" id="Line" stroke="#FFFFFF" stroke-width="3" stroke-linecap="square" mask="url(#mask-4)"></path>
                </g>
                <path d="M312.101559,86 L209.346961,86 C184.631446,86 184.631446,130.514889 184.631446,130.514889 C184.631446,130.514889 184.631446,175.029779 209.346961,175.029779 L313,175.029779" id="Path" stroke="#F8E81C" stroke-width="10" stroke-linecap="round" stroke-linejoin="round" transform="translate(248.815723, 130.514889) scale(-1, 1) translate(-248.815723, -130.514889) "></path>
                <g id="Line-+-Line-+-Line-+-Line-+-Line-+-Line-+-Line-+-Line-Mask" transform="translate(191.000000, 103.000000)">
                    <mask id="mask-6" fill="white">
                        <use xlink:href="#path-5"></use>
                    </mask>
                    <use id="Mask" fill="#979797" transform="translate(52.000977, 27.500000) scale(-1, 1) translate(-52.000977, -27.500000) " xlink:href="#path-5"></use>
                    <path d="M-0.5,22.5 L107.5,22.5" id="Line" stroke="#FFFFFF" stroke-width="3" stroke-linecap="square" mask="url(#mask-6)"></path>
                    <path d="M-0.5,14.5 L107.5,14.5" id="Line" stroke="#FFFFFF" stroke-width="3" stroke-linecap="square" mask="url(#mask-6)"></path>
                    <path d="M-0.5,-1.5 L107.5,-1.5" id="Line" stroke="#FFFFFF" stroke-width="3" stroke-linecap="square" mask="url(#mask-6)"></path>
                    <path d="M-0.5,31.5 L107.5,31.5" id="Line" stroke="#FFFFFF" stroke-width="3" stroke-linecap="square" mask="url(#mask-6)"></path>
                    <path d="M-0.5,47.5 L107.5,47.5" id="Line" stroke="#FFFFFF" stroke-width="3" stroke-linecap="square" mask="url(#mask-6)"></path>
                    <path d="M-4.5,55.5 L103.5,55.5" id="Line" stroke="#FFFFFF" stroke-width="3" stroke-linecap="square" mask="url(#mask-6)"></path>
                    <path d="M-0.5,39.5 L107.5,39.5" id="Line" stroke="#FFFFFF" stroke-width="3" stroke-linecap="square" mask="url(#mask-6)"></path>
                    <path d="M2.5,6.5 L110.5,6.5" id="Line" stroke="#FFFFFF" stroke-width="3" stroke-linecap="square" mask="url(#mask-6)"></path>
                </g>
                <path d="M312.101559,175 L209.346961,175 C184.631446,175 184.631446,219.514889 184.631446,219.514889 C184.631446,219.514889 184.631446,264.029779 209.346961,264.029779 L313,264.029779" id="Path" stroke="#F8E81C" stroke-width="10" stroke-linecap="round" stroke-linejoin="round" transform="translate(248.815723, 219.514889) scale(-1, 1) translate(-248.815723, -219.514889) "></path>
                <g id="Line-+-Line-+-Line-+-Line-+-Line-+-Line-+-Line-+-Line-Mask" transform="translate(191.000000, 192.000000)">
                    <mask id="mask-8" fill="white">
                        <use xlink:href="#path-7"></use>
                    </mask>
                    <use id="Mask" fill="#979797" transform="translate(52.000977, 27.500000) scale(-1, 1) translate(-52.000977, -27.500000) " xlink:href="#path-7"></use>
                    <path d="M-0.5,22.5 L107.5,22.5" id="Line" stroke="#FFFFFF" stroke-width="3" stroke-linecap="square" mask="url(#mask-8)"></path>
                    <path d="M-0.5,14.5 L107.5,14.5" id="Line" stroke="#FFFFFF" stroke-width="3" stroke-linecap="square" mask="url(#mask-8)"></path>
                    <path d="M-0.5,-1.5 L107.5,-1.5" id="Line" stroke="#FFFFFF" stroke-width="3" stroke-linecap="square" mask="url(#mask-8)"></path>
                    <path d="M-0.5,31.5 L107.5,31.5" id="Line" stroke="#FFFFFF" stroke-width="3" stroke-linecap="square" mask="url(#mask-8)"></path>
                    <path d="M-0.5,47.5 L107.5,47.5" id="Line" stroke="#FFFFFF" stroke-width="3" stroke-linecap="square" mask="url(#mask-8)"></path>
                    <path d="M-4.5,55.5 L103.5,55.5" id="Line" stroke="#FFFFFF" stroke-width="3" stroke-linecap="square" mask="url(#mask-8)"></path>
                    <path d="M-0.5,39.5 L107.5,39.5" id="Line" stroke="#FFFFFF" stroke-width="3" stroke-linecap="square" mask="url(#mask-8)"></path>
                    <path d="M2.5,6.5 L110.5,6.5" id="Line" stroke="#FFFFFF" stroke-width="3" stroke-linecap="square" mask="url(#mask-8)"></path>
                </g>
            </g>
        </g>
    </g>
</svg>